<?xml version="1.0" encoding="UTF-8"?> <svg xmlns="http://www.w3.org/2000/svg" width="30" height="30" viewBox="0 0 30 30" fill="none"> <path d="M0 8C0 3.58172 3.58172 0 8 0H22C26.4183 0 30 3.58172 30 8V22C30 26.4183 26.4183 30 22 30H8C3.58172 30 0 26.4183 0 22V8Z" fill="#F6C241"></path> <path d="M7.28 10.192V14.096H12.896V15.472H7.28V20H5.68V8.8H13.584V10.192H7.28ZM23.3723 14.192C24.0229 14.3733 24.5349 14.704 24.9083 15.184C25.2816 15.6533 25.4683 16.2507 25.4683 16.976C25.4683 17.9467 25.1003 18.6933 24.3643 19.216C23.6389 19.7387 22.5776 20 21.1803 20H15.8363V8.8H20.8603C22.1403 8.8 23.1269 9.056 23.8203 9.568C24.5243 10.08 24.8763 10.7893 24.8763 11.696C24.8763 12.2827 24.7376 12.7893 24.4603 13.216C24.1936 13.6427 23.8309 13.968 23.3723 14.192ZM17.4363 10.096V13.68H20.7163C21.5376 13.68 22.1669 13.5307 22.6042 13.232C23.0523 12.9227 23.2763 12.4747 23.2763 11.888C23.2763 11.3013 23.0523 10.8587 22.6042 10.56C22.1669 10.2507 21.5376 10.096 20.7163 10.096H17.4363ZM21.1163 18.704C22.0229 18.704 22.7056 18.5547 23.1643 18.256C23.6229 17.9573 23.8523 17.488 23.8523 16.848C23.8523 15.6 22.9403 14.976 21.1163 14.976H17.4363V18.704H21.1163Z" fill="white"></path> </svg> 