<?xml version="1.0" encoding="UTF-8"?> <svg xmlns="http://www.w3.org/2000/svg" width="30" height="30" viewBox="0 0 30 30" fill="none"> <path d="M0 8.00001C0 3.58173 3.58172 0 8 0H21.9999C26.4182 0 29.9999 3.58172 29.9999 8V21.9999C29.9999 26.4182 26.4182 29.9999 21.9999 29.9999H8.00001C3.58173 29.9999 0 26.4182 0 21.9999V8.00001Z" fill="#F6C241"></path> <path d="M15.408 8.8L10.496 20H8.912L3.984 8.8H5.712L9.744 18L13.808 8.8H15.408ZM20.4843 15.024L18.4363 17.104V20H16.8363V8.8H18.4363V15.056L24.5163 8.8H26.3403L21.5563 13.84L26.6443 20H24.7723L20.4843 15.024Z" fill="white"></path> </svg> 